<?xml version="1.0" encoding="UTF-8"?>
<!DOCTYPE svg PUBLIC "-//W3C//DTD SVG 1.1//EN" "http://www.w3.org/Graphics/SVG/1.1/DTD/svg11.dtd">
<svg xmlns="http://www.w3.org/2000/svg" version="1.1" width="256px" height="256px" style="shape-rendering:geometricPrecision; text-rendering:geometricPrecision; image-rendering:optimizeQuality; fill-rule:evenodd; clip-rule:evenodd" xmlns:xlink="http://www.w3.org/1999/xlink">
<g><path style="opacity:0.991" fill="#6175e7" d="M 28.5,-0.5 C 60.1667,-0.5 91.8333,-0.5 123.5,-0.5C 82.8681,40.632 42.0348,81.632 1,122.5C 0.83096,135.673 0.33096,148.673 -0.5,161.5C -0.5,117.833 -0.5,74.1667 -0.5,30.5C 2.61162,14.0545 12.2783,3.72114 28.5,-0.5 Z"/></g>
<g><path style="opacity:0.997" fill="#6579eb" d="M 123.5,-0.5 C 138.5,-0.5 153.5,-0.5 168.5,-0.5C 173.651,0.326691 178.984,0.826691 184.5,1C 182.068,4.47969 178.735,6.47969 174.5,7C 172.926,8.82586 172.093,10.9925 172,13.5C 165.167,20.3333 158.333,27.1667 151.5,34C 150.552,34.4828 149.552,34.6495 148.5,34.5C 105.282,26.859 73.7822,42.5257 54,81.5C 47.6851,98.9084 46.8518,116.575 51.5,134.5C 34.5348,150.965 17.7014,167.632 1,184.5C 0.826691,178.984 0.326691,173.651 -0.5,168.5C -0.5,166.167 -0.5,163.833 -0.5,161.5C 0.33096,148.673 0.83096,135.673 1,122.5C 42.0348,81.632 82.8681,40.632 123.5,-0.5 Z"/></g>
<g><path style="opacity:1" fill="#6a7df0" d="M 168.5,-0.5 C 188.167,-0.5 207.833,-0.5 227.5,-0.5C 241.833,3.83333 251.167,13.1667 255.5,27.5C 255.5,94.1667 255.5,160.833 255.5,227.5C 250.847,243.154 240.514,252.488 224.5,255.5C 159.833,255.5 95.1667,255.5 30.5,255.5C 13.3866,251.387 3.05322,240.72 -0.5,223.5C -0.5,205.167 -0.5,186.833 -0.5,168.5C 0.326691,173.651 0.826691,178.984 1,184.5C 17.7014,167.632 34.5348,150.965 51.5,134.5C 60.4768,160.144 77.8102,177.477 103.5,186.5C 106.418,173.996 109.418,161.496 112.5,149C 112.333,148.167 112.167,147.333 112,146.5C 94.8899,137.282 87.5566,122.948 90,103.5C 97.457,81.0508 112.957,71.2174 136.5,74C 161.388,83.275 170.221,100.775 163,126.5C 158.532,135.967 151.699,143.134 142.5,148C 145.683,160.733 149.016,173.4 152.5,186C 179.778,177.048 197.278,158.548 205,130.5C 211.961,93.2656 199.794,64.0989 168.5,43C 161.926,39.6517 155.259,36.8183 148.5,34.5C 149.552,34.6495 150.552,34.4828 151.5,34C 158.333,27.1667 165.167,20.3333 172,13.5C 172.093,10.9925 172.926,8.82586 174.5,7C 178.735,6.47969 182.068,4.47969 184.5,1C 178.984,0.826691 173.651,0.326691 168.5,-0.5 Z"/></g>
<g><path style="opacity:1" fill="#fdfefe" d="M 148.5,34.5 C 155.259,36.8183 161.926,39.6517 168.5,43C 199.794,64.0989 211.961,93.2656 205,130.5C 197.278,158.548 179.778,177.048 152.5,186C 149.016,173.4 145.683,160.733 142.5,148C 151.699,143.134 158.532,135.967 163,126.5C 170.221,100.775 161.388,83.275 136.5,74C 112.957,71.2174 97.457,81.0508 90,103.5C 87.5566,122.948 94.8899,137.282 112,146.5C 112.167,147.333 112.333,148.167 112.5,149C 109.418,161.496 106.418,173.996 103.5,186.5C 77.8102,177.477 60.4768,160.144 51.5,134.5C 46.8518,116.575 47.6851,98.9084 54,81.5C 73.7822,42.5257 105.282,26.859 148.5,34.5 Z"/></g>
<g><path style="opacity:1" fill="#f8f8fe" d="M 35.5,198.5 C 41.5011,197.561 43.5011,199.895 41.5,205.5C 34.7466,207.54 32.7466,205.206 35.5,198.5 Z"/></g>
<g><path style="opacity:1" fill="#f9fafe" d="M 54.5,200.5 C 59.2332,200.223 63.8999,200.557 68.5,201.5C 69.8333,203.833 69.8333,206.167 68.5,208.5C 64.9637,206.91 61.297,206.41 57.5,207C 56.6433,207.689 55.9767,208.522 55.5,209.5C 60.4628,212.897 65.2961,216.563 70,220.5C 71.9618,227.075 69.7952,231.575 63.5,234C 58.1294,234.676 52.7961,234.509 47.5,233.5C 47.3359,230.813 47.5026,228.146 48,225.5C 52.2936,228.363 56.7936,228.863 61.5,227C 62.8333,225.667 62.8333,224.333 61.5,223C 58.6179,221.392 55.6179,220.059 52.5,219C 45.3593,211.836 46.026,205.669 54.5,200.5 Z"/></g>
<g><path style="opacity:1" fill="#f9fafe" d="M 176.5,200.5 C 194.137,199.97 200.97,208.304 197,225.5C 192.053,233.717 184.886,236.55 175.5,234C 171,232.167 167.833,229 166,224.5C 163.071,213.394 166.571,205.394 176.5,200.5 Z"/></g>
<g><path style="opacity:1" fill="#f8f9fe" d="M 202.5,232.5 C 202.205,230.265 202.539,228.265 203.5,226.5C 207.755,228.32 212.089,228.653 216.5,227.5C 216.822,225.278 216.155,223.444 214.5,222C 209.723,220.867 205.89,218.367 203,214.5C 201.351,204.478 205.684,199.811 216,200.5C 222.934,199.102 225.268,201.769 223,208.5C 219.67,206.862 216.17,206.362 212.5,207C 210.473,208.396 210.14,210.062 211.5,212C 216.081,213.871 220.248,216.371 224,219.5C 227.225,226.316 225.392,231.149 218.5,234C 213.833,234.667 209.167,234.667 204.5,234C 203.584,233.722 202.918,233.222 202.5,232.5 Z"/></g>
<g><path style="opacity:1" fill="#f8f9fe" d="M 79.5,202.5 C 80.8333,202.5 82.1667,202.5 83.5,202.5C 83.5,204.833 83.5,207.167 83.5,209.5C 85.1667,209.5 86.8333,209.5 88.5,209.5C 88.5,211.5 88.5,213.5 88.5,215.5C 86.8333,215.5 85.1667,215.5 83.5,215.5C 83.3345,219.514 83.5012,223.514 84,227.5C 85.3561,228.38 86.8561,228.714 88.5,228.5C 88.5,230.5 88.5,232.5 88.5,234.5C 85.4816,234.665 82.4816,234.498 79.5,234C 78,233.167 76.8333,232 76,230.5C 75.5007,225.511 75.3341,220.511 75.5,215.5C 74.1667,215.5 72.8333,215.5 71.5,215.5C 71.5,213.5 71.5,211.5 71.5,209.5C 72.8333,209.5 74.1667,209.5 75.5,209.5C 74.6799,205.721 76.0133,203.388 79.5,202.5 Z"/></g>
<g><path style="opacity:1" fill="#6d7ff1" d="M 178.5,207.5 C 189.128,207.801 192.628,213.135 189,223.5C 184.7,228.446 180.033,228.779 175,224.5C 172.083,217.747 173.25,212.081 178.5,207.5 Z"/></g>
<g><path style="opacity:1" fill="#f9fafe" d="M 34.5,209.5 C 37.1667,209.5 39.8333,209.5 42.5,209.5C 42.5,217.833 42.5,226.167 42.5,234.5C 39.8333,234.5 37.1667,234.5 34.5,234.5C 34.5,226.167 34.5,217.833 34.5,209.5 Z"/></g>
<g><path style="opacity:1" fill="#f9f9fe" d="M 98.5,209.5 C 112.321,207.82 118.154,213.82 116,227.5C 111.918,233.976 106.085,236.143 98.5,234C 90.9907,229.809 88.824,223.643 92,215.5C 94.0627,213.266 96.2294,211.266 98.5,209.5 Z"/></g>
<g><path style="opacity:1" fill="#fafafe" d="M 121.5,209.5 C 124.167,209.5 126.833,209.5 129.5,209.5C 129.443,213.133 130.443,213.3 132.5,210C 134.134,209.506 135.801,209.34 137.5,209.5C 137.808,211.924 137.474,214.257 136.5,216.5C 133.755,215.025 131.588,215.691 130,218.5C 129.501,223.823 129.334,229.156 129.5,234.5C 126.833,234.5 124.167,234.5 121.5,234.5C 121.5,226.167 121.5,217.833 121.5,209.5 Z"/></g>
<g><path style="opacity:1" fill="#f8f8fe" d="M 146.5,209.5 C 157.655,208.322 162.988,213.322 162.5,224.5C 157.5,224.5 152.5,224.5 147.5,224.5C 147.22,227.388 148.553,228.888 151.5,229C 154.304,229.46 156.971,228.96 159.5,227.5C 160.466,229.396 160.799,231.396 160.5,233.5C 144.783,237.939 137.95,232.272 140,216.5C 141.694,213.642 143.861,211.309 146.5,209.5 Z"/></g>
<g><path style="opacity:1" fill="#7484f1" d="M 149.5,214.5 C 152.504,214.335 154.504,215.668 155.5,218.5C 152.5,219.833 149.5,219.833 146.5,218.5C 147.524,217.148 148.524,215.815 149.5,214.5 Z"/></g>
<g><path style="opacity:1" fill="#6e80f1" d="M 101.5,215.5 C 107.82,215.32 110.32,218.32 109,224.5C 106.456,229.143 103.289,229.643 99.5,226C 97.9243,222.046 98.5909,218.546 101.5,215.5 Z"/></g>
<g><path style="opacity:1" fill="#aeb8f7" d="M 203.5,226.5 C 202.539,228.265 202.205,230.265 202.5,232.5C 201.203,230.307 201.203,227.973 202.5,225.5C 203.107,225.624 203.44,225.957 203.5,226.5 Z"/></g>
</svg>
